<svg id="svg" version="1.1" width="400" height="64.97085320614732" viewBox="0 0 400 64.97085320614732" xmlns="http://www.w3.org/2000/svg" xmlns:xlink="http://www.w3.org/1999/xlink" ><g id="svgg"><path id="path0" d="M31.167 18.124 L 31.167 30.582 39.996 21.754 C 45.438 16.312,48.747 12.886,48.621 12.822 C 48.509 12.765,47.854 12.625,47.167 12.511 C 41.763 11.615,38.655 10.390,33.688 7.198 C 32.378 6.356,31.274 5.667,31.236 5.667 C 31.198 5.667,31.167 11.273,31.167 18.124 M10.264 15.698 C 9.221 21.732,7.733 25.306,4.100 30.500 L 3.342 31.583 9.600 31.627 C 13.042 31.651,18.628 31.651,22.013 31.627 L 28.168 31.583 19.365 22.781 L 10.562 13.979 10.264 15.698 M41.160 42.244 L 50.070 51.154 50.594 48.535 C 51.762 42.708,53.214 39.388,56.787 34.375 L 57.529 33.333 44.890 33.333 L 32.251 33.333 41.160 42.244 M20.595 43.489 C 12.738 51.346,11.817 52.321,12.178 52.399 C 12.401 52.447,13.558 52.674,14.750 52.902 C 19.917 53.894,22.299 54.876,26.977 57.947 C 28.294 58.811,29.400 59.489,29.436 59.452 C 29.473 59.416,29.483 53.824,29.459 47.026 L 29.417 34.665 20.595 43.489 " stroke="none" fill="#fbfbfb" fill-rule="evenodd"></path><path id="path1" d="M41.244 22.840 L 32.418 31.667 44.889 31.667 C 51.749 31.667,57.336 31.610,57.306 31.542 C 57.275 31.473,56.602 30.442,55.810 29.250 C 52.715 24.594,51.678 22.087,50.595 16.650 L 50.070 14.012 41.244 22.840 M3.333 33.422 C 3.333 33.471,3.857 34.292,4.498 35.247 C 7.951 40.394,8.892 42.641,10.063 48.542 L 10.584 51.167 19.500 42.250 L 28.415 33.333 15.874 33.333 C 8.977 33.333,3.333 33.373,3.333 33.422 " stroke="none" fill="#048bfb" fill-rule="evenodd"></path><path id="path2" d="M28.214 6.343 C 23.151 9.876,19.125 11.526,13.167 12.511 C 12.479 12.624,11.862 12.764,11.796 12.821 C 11.729 12.879,15.685 16.936,20.587 21.837 L 29.500 30.749 29.500 18.124 C 29.500 11.181,29.481 5.501,29.458 5.502 C 29.435 5.503,28.875 5.881,28.214 6.343 M41.124 22.792 C 36.289 27.628,32.333 31.640,32.333 31.709 C 32.333 31.777,37.996 31.833,44.917 31.833 C 51.837 31.833,57.500 31.777,57.500 31.708 C 57.500 31.640,51.856 31.603,44.958 31.627 L 32.417 31.670 41.249 22.835 C 46.107 17.976,50.045 14.000,49.999 14.000 C 49.953 14.000,45.960 17.957,41.124 22.792 M19.333 42.458 L 10.583 51.250 19.375 42.501 C 24.210 37.688,28.167 33.732,28.167 33.709 C 28.167 33.592,27.466 34.286,19.333 42.458 M31.000 47.042 C 31.000 53.986,31.040 59.667,31.089 59.667 C 31.138 59.667,31.944 59.153,32.881 58.526 C 38.080 55.041,41.675 53.581,47.333 52.654 C 48.021 52.541,48.638 52.402,48.704 52.345 C 48.771 52.288,44.815 48.231,39.913 43.329 L 31.000 34.418 31.000 47.042 " stroke="none" fill="#0463b3" fill-rule="evenodd"></path><path id="path3" d="M29.390 3.795 C 29.008 4.045,27.733 4.894,26.556 5.681 C 22.182 8.606,18.787 10.167,15.917 10.572 C 15.458 10.636,14.821 10.754,14.500 10.833 C 14.179 10.912,13.467 11.059,12.917 11.160 C 12.367 11.261,11.342 11.466,10.639 11.616 L 9.362 11.890 9.285 12.653 C 9.211 13.380,8.789 15.778,8.578 16.667 C 8.524 16.896,8.412 17.383,8.330 17.750 C 7.825 20.008,7.607 20.859,7.304 21.750 C 6.829 23.146,5.515 25.736,4.543 27.191 C 3.025 29.465,2.601 30.083,2.501 30.167 C 2.292 30.342,1.000 32.379,1.000 32.533 C 1.000 32.622,1.467 33.382,2.038 34.223 C 6.508 40.799,7.614 43.148,8.524 48.000 C 8.618 48.504,8.804 49.479,8.937 50.167 C 9.070 50.854,9.222 51.846,9.276 52.371 C 9.372 53.317,9.378 53.327,9.978 53.421 C 10.311 53.474,10.883 53.585,11.250 53.668 C 11.617 53.751,12.629 53.945,13.500 54.099 C 14.371 54.253,15.496 54.488,16.000 54.622 C 16.504 54.756,17.226 54.929,17.603 55.007 C 20.317 55.567,23.048 56.981,27.917 60.344 C 30.119 61.866,30.211 61.903,30.886 61.563 C 31.470 61.268,36.200 58.173,36.333 57.998 C 36.432 57.869,38.480 56.667,38.601 56.667 C 38.647 56.667,39.018 56.515,39.425 56.329 C 39.832 56.144,40.372 55.910,40.624 55.810 C 41.664 55.398,45.448 54.408,46.583 54.250 C 47.042 54.187,48.008 53.992,48.731 53.817 C 49.454 53.643,50.283 53.500,50.572 53.500 C 51.083 53.500,51.104 53.470,51.317 52.458 C 51.438 51.885,51.600 51.154,51.678 50.833 C 51.756 50.512,51.938 49.575,52.083 48.750 C 52.847 44.382,54.253 40.854,56.665 37.250 C 57.155 36.517,57.952 35.317,58.435 34.583 C 58.917 33.850,59.392 33.159,59.490 33.049 C 59.795 32.701,59.373 31.338,58.958 31.334 C 58.890 31.334,58.833 31.253,58.833 31.155 C 58.833 30.999,57.419 28.888,57.166 28.667 C 57.114 28.621,56.596 27.838,56.017 26.928 C 53.988 23.741,52.973 21.086,52.256 17.083 C 51.559 13.189,51.181 11.841,50.763 11.750 C 50.573 11.708,49.067 11.405,47.417 11.076 C 45.767 10.747,44.192 10.410,43.917 10.328 C 41.086 9.477,40.210 9.160,38.917 8.522 C 37.426 7.785,33.196 5.187,32.610 4.646 C 32.267 4.330,30.450 3.332,30.227 3.336 C 30.148 3.338,29.771 3.544,29.390 3.795 M29.500 18.124 L 29.500 30.749 20.587 21.837 C 15.685 16.936,11.729 12.879,11.796 12.821 C 11.862 12.764,12.479 12.624,13.167 12.511 C 19.125 11.526,23.151 9.876,28.214 6.343 C 28.875 5.881,29.435 5.503,29.458 5.502 C 29.481 5.501,29.500 11.181,29.500 18.124 M32.927 6.626 C 38.249 10.178,41.279 11.416,47.129 12.430 C 48.071 12.593,48.821 12.786,48.796 12.860 C 48.749 12.997,31.140 30.667,31.050 30.667 C 31.022 30.667,31.000 24.996,31.000 18.066 C 31.000 7.731,31.039 5.479,31.219 5.548 C 31.339 5.594,32.108 6.080,32.927 6.626 M19.591 22.875 L 28.417 31.750 22.029 31.794 C 18.516 31.818,12.835 31.818,9.405 31.794 L 3.168 31.750 4.508 29.750 C 7.881 24.714,9.095 21.727,10.162 15.833 C 10.478 14.086,10.500 14.000,10.636 14.000 C 10.708 14.000,14.738 17.994,19.591 22.875 M50.167 14.072 C 50.167 14.112,50.428 15.416,50.748 16.969 C 51.794 22.047,52.896 24.684,55.825 29.122 C 56.746 30.518,57.500 31.699,57.500 31.747 C 57.500 31.794,51.837 31.833,44.917 31.833 C 37.996 31.833,32.333 31.777,32.333 31.709 C 32.333 31.545,49.878 14.000,50.041 14.000 C 50.110 14.000,50.167 14.033,50.167 14.072 M77.763 19.096 C 70.758 19.682,68.930 21.797,69.635 28.500 C 70.110 33.021,71.805 34.149,78.147 34.161 C 82.903 34.169,91.166 34.491,91.805 34.693 C 93.379 35.189,93.429 37.681,91.877 38.274 C 90.712 38.719,79.189 38.732,78.380 38.290 C 77.770 37.957,77.500 37.542,77.500 36.941 C 77.500 35.970,77.627 36.000,73.482 36.000 L 69.667 36.000 69.668 37.292 C 69.673 44.079,72.241 44.917,90.500 44.091 C 98.534 43.728,100.060 42.916,100.677 38.676 C 101.437 33.446,100.131 30.255,96.833 29.287 C 94.996 28.747,94.128 28.683,87.250 28.576 C 78.203 28.436,77.758 28.359,77.439 26.879 C 77.014 24.904,77.655 24.689,84.365 24.555 C 91.321 24.416,91.489 24.453,92.171 26.247 L 92.426 26.917 96.088 26.917 L 99.750 26.917 99.801 25.939 C 99.941 23.220,98.630 20.587,96.707 19.728 C 94.766 18.861,84.611 18.522,77.763 19.096 M261.112 19.001 C 257.547 19.179,257.121 19.249,255.667 19.893 C 252.141 21.453,250.926 26.453,251.670 36.333 C 252.191 43.245,254.343 44.333,267.490 44.333 C 281.397 44.333,282.932 43.601,283.424 36.725 C 283.597 34.296,283.959 34.500,279.489 34.500 L 275.667 34.500 275.667 35.266 C 275.667 37.643,274.708 37.999,268.333 37.989 C 259.854 37.976,259.333 37.601,259.333 31.505 C 259.333 25.370,259.615 25.166,268.069 25.168 C 274.636 25.169,275.199 25.335,275.569 27.375 L 275.682 28.000 279.442 28.000 L 283.202 28.000 283.084 26.458 C 282.783 22.537,281.506 20.287,279.144 19.517 C 277.553 18.999,267.125 18.700,261.112 19.001 M296.417 18.948 C 290.024 19.275,287.608 20.317,286.833 23.083 C 286.731 23.450,286.576 24.012,286.489 24.333 C 285.658 27.411,285.577 36.871,286.362 39.083 C 287.903 43.425,290.545 44.336,301.583 44.332 C 315.620 44.328,317.942 43.570,319.448 38.500 C 320.908 33.582,320.106 23.760,318.058 21.494 C 315.926 19.134,308.906 18.308,296.417 18.948 M103.833 31.667 L 103.833 44.167 107.667 44.167 L 111.500 44.167 111.500 39.333 L 111.500 34.500 120.000 34.500 L 128.500 34.500 128.500 39.333 L 128.500 44.167 132.333 44.167 L 136.167 44.167 136.167 31.667 L 136.167 19.167 132.333 19.167 L 128.500 19.167 128.500 23.667 L 128.500 28.167 120.000 28.167 L 111.500 28.167 111.500 23.667 L 111.500 19.167 107.667 19.167 L 103.833 19.167 103.833 31.667 M151.018 20.207 C 150.707 20.781,150.286 21.550,150.082 21.917 C 149.878 22.283,149.466 23.033,149.167 23.583 C 148.867 24.133,148.490 24.808,148.328 25.083 C 148.166 25.358,147.876 25.865,147.683 26.208 C 147.491 26.552,147.186 27.094,147.006 27.412 C 146.826 27.730,146.402 28.498,146.064 29.120 C 145.388 30.365,145.200 30.703,143.630 33.500 C 142.185 36.076,141.537 37.255,141.020 38.250 C 140.781 38.708,140.529 39.108,140.460 39.139 C 140.390 39.169,140.333 39.254,140.333 39.327 C 140.333 39.400,139.809 40.399,139.168 41.547 C 138.527 42.695,137.956 43.754,137.900 43.900 C 137.808 44.140,138.231 44.167,142.133 44.167 L 146.467 44.167 146.650 43.708 C 146.751 43.456,147.275 42.462,147.815 41.500 L 148.796 39.750 156.773 39.714 L 164.750 39.678 165.833 41.856 C 167.135 44.472,166.414 44.181,171.470 44.128 L 175.685 44.083 175.285 43.333 C 174.651 42.143,173.668 40.347,172.974 39.110 C 172.621 38.483,172.333 37.946,172.333 37.917 C 172.333 37.887,172.045 37.350,171.693 36.723 C 170.530 34.653,169.951 33.592,169.618 32.917 C 169.437 32.550,168.971 31.688,168.582 31.000 C 168.193 30.313,167.578 29.188,167.214 28.500 C 166.851 27.813,166.307 26.800,166.004 26.250 C 164.477 23.470,164.019 22.630,162.729 20.250 L 162.188 19.250 156.885 19.207 L 151.583 19.164 151.018 20.207 M177.000 31.667 L 177.000 44.167 180.667 44.167 L 184.333 44.167 184.333 35.083 C 184.333 30.087,184.390 26.005,184.458 26.011 C 184.527 26.018,185.108 26.697,185.750 27.521 C 186.392 28.346,187.029 29.148,187.167 29.303 C 187.304 29.459,188.165 30.524,189.079 31.668 C 189.994 32.813,190.781 33.787,190.829 33.833 C 190.877 33.879,191.665 34.854,192.579 36.000 C 193.494 37.146,194.281 38.121,194.329 38.167 C 194.403 38.237,195.107 39.107,195.948 40.167 C 196.193 40.476,197.263 41.797,197.639 42.255 C 197.792 42.441,198.203 42.947,198.553 43.380 L 199.189 44.167 205.261 44.167 L 211.333 44.167 211.333 31.667 L 211.333 19.167 207.751 19.167 L 204.169 19.167 204.126 28.325 L 204.083 37.484 202.667 35.716 C 201.887 34.743,201.175 33.866,201.083 33.766 C 200.992 33.665,200.171 32.646,199.261 31.500 C 198.350 30.354,197.562 29.379,197.510 29.333 C 197.458 29.287,195.765 27.188,193.749 24.668 C 191.733 22.147,189.902 19.878,189.681 19.626 L 189.278 19.167 183.139 19.167 L 177.000 19.167 177.000 31.667 M214.833 31.650 L 214.833 44.133 217.042 44.242 C 218.256 44.303,224.537 44.329,231.000 44.301 L 242.750 44.250 242.796 41.375 L 242.841 38.500 232.754 38.500 L 222.667 38.500 222.667 36.333 L 222.667 34.167 232.083 34.167 L 241.500 34.167 241.500 31.583 L 241.500 29.000 232.083 29.000 L 222.667 29.000 222.667 26.917 L 222.667 24.833 232.750 24.833 L 242.833 24.833 242.833 22.000 L 242.833 19.167 228.833 19.167 L 214.833 19.167 214.833 31.650 M323.167 31.770 L 323.167 44.384 325.042 44.276 C 326.073 44.217,327.798 44.168,328.875 44.167 L 330.833 44.167 330.833 40.993 L 330.833 37.820 337.958 37.868 C 347.061 37.930,346.385 37.616,346.597 41.875 L 346.712 44.167 350.623 44.167 L 354.535 44.167 354.462 40.875 C 354.381 37.219,354.277 36.779,353.296 35.915 C 352.531 35.241,352.231 35.087,351.208 34.842 C 349.994 34.552,350.010 34.447,351.347 33.923 C 353.753 32.979,354.519 31.720,354.749 28.333 C 355.029 24.211,354.016 21.299,351.917 20.189 C 350.039 19.196,351.039 19.260,336.542 19.206 L 323.167 19.155 323.167 31.770 M358.000 31.660 L 358.000 44.167 361.833 44.167 L 365.667 44.167 365.667 41.083 L 365.667 38.000 372.125 37.996 C 386.027 37.989,387.184 37.521,388.078 31.543 C 389.069 24.918,387.637 21.054,383.667 19.642 L 382.583 19.257 370.292 19.205 L 358.000 19.153 358.000 31.660 M158.002 27.083 C 158.578 28.183,159.273 29.496,159.546 30.000 C 159.819 30.504,160.447 31.685,160.942 32.625 L 161.842 34.333 156.751 34.333 L 151.659 34.333 152.308 33.125 C 152.665 32.460,153.314 31.242,153.751 30.417 C 154.187 29.592,154.826 28.392,155.170 27.750 C 155.514 27.108,156.006 26.189,156.264 25.708 C 156.522 25.226,156.782 24.889,156.843 24.958 C 156.904 25.027,157.426 25.983,158.002 27.083 M309.532 25.356 C 311.930 25.870,312.237 26.601,312.202 31.714 C 312.159 37.855,311.981 37.975,302.822 37.991 C 294.063 38.007,293.667 37.727,293.667 31.522 C 293.667 26.877,294.103 25.934,296.500 25.404 C 297.734 25.131,308.301 25.092,309.532 25.356 M345.822 25.765 C 346.847 26.175,347.241 28.144,346.691 30.107 C 346.314 31.450,346.562 31.410,338.208 31.468 L 330.833 31.519 330.833 28.509 L 330.833 25.500 337.997 25.500 C 344.154 25.500,345.253 25.537,345.822 25.765 M379.172 25.875 C 380.702 26.647,380.994 29.645,379.664 30.919 C 379.036 31.521,377.431 31.656,370.875 31.662 L 365.667 31.667 365.667 28.583 L 365.667 25.500 372.048 25.500 C 378.334 25.500,378.440 25.506,379.172 25.875 M19.619 42.292 C 13.003 48.908,10.623 51.190,10.517 51.022 C 10.437 50.897,10.284 50.222,10.175 49.522 C 9.904 47.781,9.065 44.371,8.555 42.935 C 7.764 40.711,6.629 38.619,4.340 35.167 C 3.823 34.387,3.343 33.656,3.274 33.542 C 3.173 33.376,5.734 33.333,15.862 33.333 L 28.577 33.333 19.619 42.292 M57.236 33.792 C 52.869 40.406,51.777 42.848,50.664 48.500 C 50.365 50.012,50.110 51.266,50.095 51.285 C 50.081 51.304,46.022 47.273,41.077 42.327 L 32.084 33.333 44.811 33.333 L 57.538 33.333 57.236 33.792 M29.460 53.328 L 29.417 59.680 28.833 59.246 C 24.004 55.650,19.280 53.665,13.167 52.666 C 12.479 52.553,11.852 52.423,11.772 52.375 C 11.693 52.328,15.630 48.287,20.522 43.394 L 29.417 34.499 29.460 40.737 C 29.484 44.168,29.484 49.834,29.460 53.328 M48.704 52.345 C 48.638 52.402,48.021 52.541,47.333 52.654 C 41.675 53.581,38.080 55.041,32.881 58.526 C 31.944 59.153,31.138 59.667,31.089 59.667 C 31.040 59.667,31.000 53.986,31.000 47.042 L 31.000 34.418 39.913 43.329 C 44.815 48.231,48.771 52.288,48.704 52.345 " stroke="none" fill="#040404" fill-rule="evenodd"></path><path id="path4" d="M31.039 18.125 C 31.060 25.069,31.098 28.725,31.122 26.250 C 31.237 14.528,31.238 5.500,31.125 5.500 C 31.056 5.500,31.017 11.181,31.039 18.125 M14.250 17.667 C 16.265 19.683,17.951 21.333,17.997 21.333 C 18.043 21.333,16.432 19.683,14.417 17.667 C 12.402 15.650,10.715 14.000,10.670 14.000 C 10.624 14.000,12.235 15.650,14.250 17.667 M19.000 22.417 C 19.498 22.921,19.943 23.333,19.989 23.333 C 20.034 23.333,19.665 22.921,19.167 22.417 C 18.669 21.912,18.224 21.500,18.178 21.500 C 18.132 21.500,18.502 21.912,19.000 22.417 M9.363 31.792 C 12.816 31.817,18.516 31.817,22.029 31.792 C 25.542 31.766,22.717 31.746,15.750 31.746 C 8.783 31.746,5.909 31.766,9.363 31.792 M41.083 42.333 C 46.033 47.283,50.120 51.333,50.166 51.333 C 50.211 51.333,46.199 47.283,41.250 42.333 C 36.301 37.383,32.214 33.333,32.168 33.333 C 32.122 33.333,36.134 37.383,41.083 42.333 M20.522 43.395 C 14.835 49.082,11.699 52.334,11.825 52.412 C 11.933 52.479,12.067 52.488,12.122 52.433 C 12.177 52.378,12.116 52.333,11.987 52.333 C 11.857 52.333,15.763 48.321,20.667 43.417 C 25.570 38.512,29.545 34.500,29.499 34.500 C 29.453 34.500,25.413 38.503,20.522 43.395 " stroke="none" fill="#848484" fill-rule="evenodd"></path></g></svg>